<svg width="396" height="512" fill="none" xmlns="http://www.w3.org/2000/svg"><path d="M111.524 506.591h-.54l-.989-1.517a4.747 4.747 0 0 1-1.503 1.306 4.075 4.075 0 0 1-1.964.475h-.989a4.697 4.697 0 0 1-1.819-.356 4.785 4.785 0 0 1-1.477-1.003 4.777 4.777 0 0 1-1.002-1.477 4.613 4.613 0 0 1-.356-1.808v-10.158c0-.642.119-1.245.356-1.807a4.77 4.77 0 0 1 1.002-1.478 4.58 4.58 0 0 1 1.477-.989 4.53 4.53 0 0 1 1.819-.37h1.345c.641 0 1.243.123 1.806.37a4.59 4.59 0 0 1 1.477.989c.421.422.751.915.988 1.478.246.562.369 1.165.369 1.807v.765l-1.7.264v-1.029c0-.422-.079-.814-.238-1.174a3.014 3.014 0 0 0-2.781-1.847h-1.187a2.98 2.98 0 0 0-1.186.237 3.248 3.248 0 0 0-.963.647 3 3 0 0 0-.646.963c-.158.36-.237.752-.237 1.174v10.158a2.985 2.985 0 0 0 .631 1.857c.078.102.162.2.252.294.281.272.602.488.963.646a2.98 2.98 0 0 0 1.186.237h1.187c.422 0 .813-.079 1.173-.237.369-.158.69-.374.962-.646a3.212 3.212 0 0 0 .646-.964c.159-.369.238-.765.238-1.187v-3.944h-3.019v-1.623h4.719v9.947Zm3.665-16.754v-2.164h1.886v2.164h-1.886Zm.132 16.754v-13.509h1.622v13.509h-1.622Zm10.336 0c-.492 0-.958-.092-1.397-.277a3.59 3.59 0 0 1-1.134-.765 3.936 3.936 0 0 1-.765-1.135 3.488 3.488 0 0 1-.277-1.385v-8.404h-2.425v-1.543h2.425v-3.245l1.622-.264v3.509h3.428v1.543h-3.428v8.483a2 2 0 0 0 .145.765 2.064 2.064 0 0 0 1.042 1.029 1.957 1.957 0 0 0 .764.146h1.477v1.543h-1.477Zm13.948 0v-8.641h-7.237v8.641h-1.701v-18.918h1.701v8.654h7.237v-8.654h1.701v18.918h-1.701Zm13.711 0-.896-1.372a4.149 4.149 0 0 1-1.384 1.201 3.865 3.865 0 0 1-1.82.435h-.408a3.947 3.947 0 0 1-1.543-.304 4.065 4.065 0 0 1-1.265-.857 4.074 4.074 0 0 1-.857-1.267 3.944 3.944 0 0 1-.304-1.543v-9.802h1.622v9.894a2.325 2.325 0 0 0 .685 1.663c.211.211.458.378.739.501.29.123.597.185.923.185h1.081a2.224 2.224 0 0 0 .909-.185 2.347 2.347 0 0 0 1.253-1.24c.123-.29.184-.598.184-.924v-9.894h1.622v13.509h-.541Z" fill="#444"/><path fill-rule="evenodd" clip-rule="evenodd" d="M166.118 502.884c0 .545-.106 1.06-.317 1.543a3.903 3.903 0 0 1-.843 1.267 4.08 4.08 0 0 1-1.266.857 3.947 3.947 0 0 1-1.543.304h-1.081a3.939 3.939 0 0 1-1.542-.304 4.07 4.07 0 0 1-1.266-.857 4.09 4.09 0 0 1-.857-1.267 3.96 3.96 0 0 1-.303-1.543v-15.211h1.622v6.544a3.888 3.888 0 0 1 3.019-1.399h.408c.545 0 1.059.106 1.543.317.483.202.905.483 1.266.844.36.361.641.783.843 1.267.211.483.317.998.317 1.543v6.095Zm-1.669-6.665a2.391 2.391 0 0 0-.638-1.185 2.347 2.347 0 0 0-.752-.501 2.243 2.243 0 0 0-.91-.185h-1.081a2.336 2.336 0 0 0-1.661.686 2.358 2.358 0 0 0-.501.752 2.25 2.25 0 0 0-.184.911v6.279c0 .326.061.634.184.924a2.379 2.379 0 0 0 1.24 1.24c.29.123.597.185.922.185h1.081c.326 0 .629-.062.91-.185.29-.123.541-.29.752-.501.21-.212.377-.458.501-.739.123-.29.184-.598.184-.924v-6.279c0-.165-.016-.324-.047-.478Z" fill="#444"/><path d="M186.486 506.591h-.54l-.989-1.517a4.747 4.747 0 0 1-1.503 1.306 4.078 4.078 0 0 1-1.964.475h-.989a4.697 4.697 0 0 1-1.819-.356 4.785 4.785 0 0 1-1.477-1.003 4.777 4.777 0 0 1-1.002-1.477 4.613 4.613 0 0 1-.356-1.808v-10.158c0-.642.119-1.245.356-1.807a4.77 4.77 0 0 1 1.002-1.478 4.58 4.58 0 0 1 1.477-.989 4.53 4.53 0 0 1 1.819-.37h1.345c.641 0 1.243.123 1.806.37a4.575 4.575 0 0 1 2.465 2.467c.246.562.369 1.165.369 1.807v.765l-1.7.264v-1.029c0-.422-.079-.814-.238-1.174a3.014 3.014 0 0 0-2.781-1.847h-1.187a2.98 2.98 0 0 0-1.186.237 3.248 3.248 0 0 0-.963.647 2.969 2.969 0 0 0-.646.963c-.158.36-.237.752-.237 1.174v10.158a2.985 2.985 0 0 0 .48 1.642c.117.182.251.351.403.509.281.272.602.488.963.646a2.98 2.98 0 0 0 1.186.237h1.187a2.89 2.89 0 0 0 1.173-.237c.369-.158.69-.374.962-.646.273-.282.488-.603.646-.964.159-.369.238-.765.238-1.187v-3.944h-3.019v-1.623h4.719v9.947Zm7.489-11.966c-.326 0-.633.062-.923.185a2.39 2.39 0 0 0-.964.764c-.108.149-.2.311-.276.489a2.25 2.25 0 0 0-.184.911v9.617h-1.622v-13.509h.541l.883 1.372a4.01 4.01 0 0 1 1.384-1.187 3.848 3.848 0 0 1 1.833-.449h.949v1.807h-1.621Z" fill="#444"/><path fill-rule="evenodd" clip-rule="evenodd" d="m206.235 506.591-.896-1.346a4.272 4.272 0 0 1-1.384 1.175 3.865 3.865 0 0 1-1.82.435h-.408c-.545 0-1.06-.101-1.543-.304a4.08 4.08 0 0 1-1.266-.857 4.07 4.07 0 0 1-.856-1.267 3.944 3.944 0 0 1-.304-1.543v-.132c0-.545.101-1.06.304-1.543a4.07 4.07 0 0 1 .856-1.267 3.896 3.896 0 0 1 1.266-.844 3.815 3.815 0 0 1 1.543-.317h3.427v-2.084a2.25 2.25 0 0 0-.184-.911 2.411 2.411 0 0 0-.501-.752 2.371 2.371 0 0 0-.752-.501 2.242 2.242 0 0 0-.909-.185h-.95a2.336 2.336 0 0 0-1.661.686 2.328 2.328 0 0 0-.501.752 2.25 2.25 0 0 0-.184.911v.488l-1.622-.264v-.132c0-.545.101-1.06.303-1.543a4.09 4.09 0 0 1 .857-1.267 3.896 3.896 0 0 1 1.266-.844 3.81 3.81 0 0 1 1.542-.317h.95a3.81 3.81 0 0 1 1.542.317c.483.202.905.483 1.266.844.36.361.641.783.843 1.267.211.483.317.998.317 1.543v9.802h-.541Zm-1.081-6.543h-3.427c-.326 0-.633.061-.923.184a2.273 2.273 0 0 0-.739.515 2.363 2.363 0 0 0-.501.752 2.246 2.246 0 0 0-.184.91v.567c0 .326.061.634.184.924a2.379 2.379 0 0 0 1.24 1.24c.29.123.597.185.923.185h1.081c.325 0 .628-.062.909-.185a2.423 2.423 0 0 0 .541-.315 2.403 2.403 0 0 0 .712-.925 2.55 2.55 0 0 0 .104-.301c.053-.2.08-.408.08-.623v-2.928Zm13.883 2.836c0 .545-.106 1.06-.317 1.543a3.89 3.89 0 0 1-.844 1.267c-.36.361-.782.646-1.265.857a3.947 3.947 0 0 1-1.543.304h-.408a3.888 3.888 0 0 1-3.019-1.399V512h-1.622v-18.918h.541l.883 1.372c.369-.501.83-.897 1.384-1.187a3.845 3.845 0 0 1 1.833-.449h.408c.545 0 1.059.106 1.543.317a3.882 3.882 0 0 1 2.109 2.111c.211.483.317.998.317 1.543v6.095Zm-1.622-6.187c0-.326-.061-.629-.185-.911-.123-.29-.29-.54-.501-.752a2.332 2.332 0 0 0-.751-.501 2.243 2.243 0 0 0-.91-.185h-1.081a2.34 2.34 0 0 0-1.117.28 2.394 2.394 0 0 0-.544.406 2.358 2.358 0 0 0-.501.752 2.25 2.25 0 0 0-.184.911v6.279c0 .326.061.634.184.924a2.41 2.41 0 0 0 .501.739c.211.211.457.378.738.501a2.39 2.39 0 0 0 .923.185h1.081c.326 0 .629-.062.91-.185a2.332 2.332 0 0 0 1.437-2.164v-6.279Z" fill="#444"/><path d="M229.676 506.591v-9.894c0-.326-.062-.629-.185-.911-.123-.29-.29-.54-.501-.752a2.343 2.343 0 0 0-.751-.501 2.247 2.247 0 0 0-.91-.185h-1.081a2.416 2.416 0 0 0-.923.185c-.281.123-.527.29-.738.501a2.358 2.358 0 0 0-.501.752 2.252 2.252 0 0 0-.185.911v9.894h-1.621v-18.918h1.621v6.544a3.884 3.884 0 0 1 3.019-1.399h.409c.545 0 1.059.106 1.543.317a3.882 3.882 0 0 1 2.109 2.111c.211.483.316.998.316 1.543v9.802h-1.621Z" fill="#444"/><path fill-rule="evenodd" clip-rule="evenodd" d="M245.114 503.953a4.61 4.61 0 0 1-.91 1.438 4.796 4.796 0 0 1-1.371 1.015 4.512 4.512 0 0 1-1.674.449l1.727 3.892h-1.701l-1.727-3.892a4.697 4.697 0 0 1-1.819-.356 4.785 4.785 0 0 1-1.477-1.003 4.777 4.777 0 0 1-1.002-1.477 4.613 4.613 0 0 1-.356-1.808v-10.158c0-.642.119-1.245.356-1.807a4.77 4.77 0 0 1 1.002-1.478 4.58 4.58 0 0 1 1.477-.989 4.53 4.53 0 0 1 1.819-.37h1.345c.641 0 1.243.123 1.806.37a4.575 4.575 0 0 1 2.465 2.467c.246.562.369 1.165.369 1.807v10.158c0 .616-.11 1.196-.329 1.742Zm-1.371-11.9c0-.422-.079-.814-.238-1.174a3.014 3.014 0 0 0-2.781-1.847h-1.187a2.98 2.98 0 0 0-1.186.237 3.248 3.248 0 0 0-.963.647 3.03 3.03 0 0 0-.646.963c-.158.36-.237.752-.237 1.174v10.158c0 .422.079.818.237 1.187.158.361.374.682.646.964.281.272.602.488.963.646a2.98 2.98 0 0 0 1.186.237h1.187c.422 0 .813-.079 1.173-.237.369-.158.69-.374.962-.646a3.263 3.263 0 0 0 .646-.964c.159-.369.238-.765.238-1.187v-10.158Z" fill="#444"/><path d="M249.227 506.591v-18.918h1.701v17.295h7.238v1.623h-8.939Z" fill="#444"/><path fill-rule="evenodd" clip-rule="evenodd" d="m268.198 502.185-1.239 4.406h-1.767l5.537-18.918h.897l5.563 18.918h-1.753l-1.252-4.406h-5.986Zm.462-1.623h5.075l-2.491-8.72-.053-.699-.053.699-2.478 8.72Zm21.594-5.884c0 .642-.123 1.245-.369 1.808a4.59 4.59 0 0 1-.989 1.477 4.718 4.718 0 0 1-1.489 1.003 4.607 4.607 0 0 1-1.806.356h-4.285v7.269h-1.701v-18.918h5.986a4.46 4.46 0 0 1 1.806.369 4.555 4.555 0 0 1 1.489.99c.422.422.752.919.989 1.491.246.562.369 1.165.369 1.807v2.348Zm-1.7-2.348c0-.422-.079-.814-.238-1.174a2.923 2.923 0 0 0-.659-.963 2.729 2.729 0 0 0-.385-.334 2.984 2.984 0 0 0-1.751-.563h-4.205v8.403h4.205c.422 0 .813-.079 1.174-.237.369-.158.69-.374.962-.647a2.97 2.97 0 0 0 .659-.949c.159-.37.238-.766.238-1.188v-2.348Z" fill="#444"/><path d="M293.511 506.591v-18.918h1.7v18.918h-1.7ZM215.697 37.93c-4.315 5.683-11.14 9.352-18.822 9.352-7.273 0-13.779-3.29-18.113-8.462l-22.388 12.925-4.498-7.8 22.522-13.003a23.649 23.649 0 0 1-1.148-7.301C173.25 10.584 183.827 0 196.875 0S220.5 10.584 220.5 23.64a23.68 23.68 0 0 1-.819 6.193l24.443 14.111-4.498 7.801-23.929-13.814Zm134.89 77.874a23.582 23.582 0 0 0-1.837 9.155c0 11.91 8.801 21.763 20.25 23.402v26.131h9v-26.566c10.332-2.525 18-11.85 18-22.967 0-13.056-10.577-23.641-23.625-23.641a23.544 23.544 0 0 0-16.768 6.987l-23.733-13.702-4.498 7.801 23.211 13.4ZM41.738 342.775c-4.334 5.172-10.84 8.461-18.113 8.461C10.577 351.236 0 340.652 0 327.596c0-11.117 7.668-20.442 18-22.967v-28.818h9v28.383c11.449 1.639 20.25 11.492 20.25 23.402a23.65 23.65 0 0 1-1.148 7.301l22.522 13.002-4.498 7.801-22.388-12.925ZM27 148.361c11.449-1.639 20.25-11.492 20.25-23.402 0-3.246-.654-6.339-1.837-9.155l23.21-13.4-4.497-7.8-23.733 13.701a23.544 23.544 0 0 0-16.768-6.987C10.577 101.318 0 111.903 0 124.959c0 11.117 7.668 20.442 18 22.967v26.566h9v-26.131Zm345.375 202.875c13.048 0 23.625-10.584 23.625-23.64 0-11.117-7.668-20.442-18-22.967v-28.818h-9v28.383c-11.449 1.639-20.25 11.492-20.25 23.402 0 2.548.403 5.001 1.148 7.301l-22.522 13.002 4.498 7.801 22.388-12.925c4.334 5.173 10.84 8.461 18.113 8.461ZM220.5 428.914c0 13.056-10.577 23.641-23.625 23.641s-23.625-10.585-23.625-23.641c0-3.246.654-6.34 1.837-9.155l-23.211-13.4 4.498-7.801 23.733 13.702a23.544 23.544 0 0 1 16.768-6.987c6.971 0 13.237 3.021 17.562 7.827l25.189-14.542 4.498 7.801-25.046 14.459a23.604 23.604 0 0 1 1.422 8.096Z" fill="#444"/></svg>