<svg width="280" height="320" fill="none" xmlns="http://www.w3.org/2000/svg"><path d="M152.513 26.82c-3.051 4.019-7.877 6.613-13.308 6.613a16.664 16.664 0 0 1-12.807-5.983l-15.831 9.139-3.18-5.516 15.925-9.194a16.716 16.716 0 0 1-.812-5.163C122.5 7.484 129.979 0 139.205 0c9.225 0 16.704 7.484 16.704 16.716 0 1.515-.201 2.983-.579 4.379l17.283 9.978-3.18 5.516-16.92-9.768Zm95.377 55.065a16.665 16.665 0 0 0-1.299 6.473c0 8.422 6.223 15.389 14.318 16.547v18.478h6.364v-18.785c7.305-1.786 12.727-8.38 12.727-16.24 0-9.232-7.479-16.716-16.705-16.716-4.635 0-8.829 1.89-11.855 4.94l-16.782-9.688-3.18 5.516 16.412 9.475ZM29.512 242.375a16.663 16.663 0 0 1-12.808 5.983C7.48 248.358 0 240.874 0 231.642c0-7.861 5.422-14.454 12.727-16.24v-20.377h6.364v20.07c8.095 1.158 14.318 8.125 14.318 16.547a16.71 16.71 0 0 1-.812 5.162l15.925 9.194-3.18 5.516-15.83-9.139ZM19.09 104.905c8.096-1.158 14.32-8.125 14.32-16.547 0-2.295-.463-4.482-1.3-6.473l16.412-9.475-3.18-5.516-16.782 9.688a16.647 16.647 0 0 0-11.855-4.94C7.478 71.642 0 79.126 0 88.358c0 7.86 5.422 14.454 12.727 16.24v18.785h6.364v-18.478Zm244.205 143.453c9.226 0 16.705-7.484 16.705-16.716 0-7.861-5.422-14.454-12.727-16.24v-20.377h-6.364v20.07c-8.095 1.158-14.318 8.125-14.318 16.547 0 1.801.285 3.537.812 5.162l-15.925 9.194 3.18 5.516 15.83-9.139a16.665 16.665 0 0 0 12.807 5.983Zm-107.386 54.926c0 9.232-7.479 16.716-16.704 16.716-9.226 0-16.705-7.484-16.705-16.716 0-2.296.462-4.483 1.299-6.474l-16.412-9.475 3.18-5.516 16.782 9.689a16.642 16.642 0 0 1 11.856-4.941c4.929 0 9.359 2.137 12.417 5.535l17.811-10.283 3.18 5.516-17.709 10.224a16.707 16.707 0 0 1 1.005 5.725Z" fill="#001"/></svg>