<svg xmlns="http://www.w3.org/2000/svg" fill="none" viewBox="0 0 800 800">
  <path fill="#444" d="M313.524 650.591h-.54l-.989-1.517c-.413.545-.914.981-1.503 1.306-.589.317-1.243.475-1.964.475h-.989c-.642 0-1.248-.119-1.819-.356-.563-.247-1.055-.581-1.477-1.003-.422-.422-.756-.915-1.002-1.477-.237-.563-.356-1.166-.356-1.808v-10.158c0-.642.119-1.245.356-1.807.246-.563.58-1.056 1.002-1.478.422-.422.914-.752 1.477-.989.571-.247 1.177-.37 1.819-.37h1.345c.641 0 1.243.123 1.806.37.562.237 1.055.567 1.477.989.421.422.751.915.988 1.478.246.562.369 1.165.369 1.807v.765l-1.7.264v-1.029c0-.422-.079-.814-.238-1.174-.158-.37-.373-.691-.646-.963-.272-.273-.593-.488-.962-.647-.36-.158-.751-.237-1.173-.237h-1.187c-.422 0-.817.079-1.186.237-.361.159-.682.374-.963.647-.082.082-.159.169-.231.26-.166.211-.304.445-.415.703-.158.36-.237.752-.237 1.174v10.158c0 .422.079.818.237 1.187.059.134.125.262.199.385.06.098.125.193.195.285.078.102.162.2.252.294.281.272.602.488.963.646.369.158.764.237 1.186.237h1.187c.422 0 .813-.079 1.173-.237.369-.158.69-.374.962-.646.134-.138.253-.285.359-.442.111-.164.207-.337.287-.522.159-.369.238-.765.238-1.187v-3.944h-3.019v-1.623h4.719v9.947zM317.189 633.837v-2.164h1.886v2.164h-1.886zM317.321 650.591v-13.509h1.622v13.509h-1.622zM327.657 650.591c-.492 0-.958-.092-1.397-.277-.431-.185-.809-.44-1.134-.765-.316-.326-.571-.704-.765-1.135-.184-.431-.277-.892-.277-1.385v-8.404h-2.425v-1.543h2.425v-3.245l1.622-.264v3.509h3.428v1.543h-3.428v8.483c0 .273.048.528.145.765.072.157.161.301.266.432.048.061.1.12.156.175.07.071.146.136.226.195.12.088.251.164.394.227.119.049.243.085.371.11.127.024.258.036.393.036h1.477v1.543h-1.477zM341.605 650.591v-8.641h-7.237v8.641h-1.701v-18.918h1.701v8.654h7.237v-8.654h1.701v18.918h-1.701zM355.316 650.591l-.896-1.372c-.369.501-.831.902-1.384 1.201-.554.29-1.161.435-1.82.435h-.408c-.545 0-1.059-.101-1.543-.304-.483-.211-.905-.496-1.265-.857-.361-.361-.646-.783-.857-1.267-.203-.483-.304-.998-.304-1.543v-9.802h1.622v9.894c0 .326.061.634.185.924.123.281.29.527.5.739.211.211.458.378.739.501.29.123.597.185.923.185h1.081c.192 0 .376-.022.553-.065.122-.03.241-.07.356-.12.29-.123.541-.29.752-.501.089-.089.169-.184.243-.285.1-.14.187-.291.258-.454.123-.29.184-.598.184-.924v-9.894h1.622v13.509h-.541z"/>
  <path fill="#444" fill-rule="evenodd" d="M368.118 646.884c0 .545-.106 1.06-.317 1.543-.202.484-.483.906-.843 1.267-.361.361-.783.646-1.266.857-.484.203-.998.304-1.543.304h-1.081c-.545 0-1.059-.101-1.542-.304-.484-.211-.905-.496-1.266-.857-.36-.361-.646-.783-.857-1.267-.202-.483-.303-.998-.303-1.543v-15.211h1.622v6.544c.369-.44.813-.783 1.331-1.03.519-.246 1.081-.369 1.688-.369h.408c.545 0 1.059.106 1.543.317.483.202.905.483 1.266.844.36.361.641.783.843 1.267.211.483.317.998.317 1.543v6.095zm-1.669-6.665c-.031-.15-.077-.294-.137-.433-.124-.29-.291-.54-.501-.752-.211-.211-.462-.378-.752-.501-.281-.123-.584-.185-.91-.185h-1.081c-.325 0-.632.062-.922.185-.282.123-.528.29-.739.501-.211.212-.378.462-.501.752-.123.282-.184.585-.184.911v6.279c0 .326.061.634.184.924.123.281.29.527.501.739.211.211.457.378.739.501.29.123.597.185.922.185h1.081c.326 0 .629-.062.91-.185.29-.123.541-.29.752-.501.21-.212.377-.458.501-.739.123-.29.184-.598.184-.924v-6.279c0-.165-.016-.324-.047-.478z" clip-rule="evenodd"/>
  <path fill="#444" d="M388.486 650.591h-.54l-.989-1.517c-.413.545-.914.981-1.503 1.306-.589.317-1.244.475-1.964.475h-.989c-.642 0-1.248-.119-1.819-.356-.563-.247-1.055-.581-1.477-1.003-.422-.422-.756-.915-1.002-1.477-.237-.563-.356-1.166-.356-1.808v-10.158c0-.642.119-1.245.356-1.807.246-.563.58-1.056 1.002-1.478.422-.422.914-.752 1.477-.989.571-.247 1.177-.37 1.819-.37h1.345c.641 0 1.243.123 1.806.37.562.237 1.055.567 1.476.989.422.422.752.915.989 1.478.246.562.369 1.165.369 1.807v.765l-1.7.264v-1.029c0-.422-.079-.814-.238-1.174-.158-.37-.373-.691-.646-.963-.272-.273-.593-.488-.962-.647-.36-.158-.752-.237-1.173-.237h-1.187c-.422 0-.817.079-1.186.237-.361.159-.682.374-.963.647-.168.168-.315.355-.44.561-.077.127-.145.261-.206.402-.158.36-.237.752-.237 1.174v10.158c0 .422.079.818.237 1.187.026.06.054.119.084.177.048.095.102.188.159.278.117.182.251.351.403.509.281.272.602.488.963.646.369.158.764.237 1.186.237h1.187c.421 0 .813-.079 1.173-.237.369-.158.69-.374.962-.646.273-.282.488-.603.646-.964.159-.369.238-.765.238-1.187v-3.944h-3.019v-1.623h4.719v9.947zM395.975 638.625c-.326 0-.633.062-.923.185-.281.123-.528.29-.739.501-.081.082-.156.17-.225.263-.108.149-.2.311-.276.489-.123.282-.184.585-.184.911v9.617h-1.622v-13.509h.541l.883 1.372c.369-.501.831-.897 1.384-1.187.563-.299 1.174-.449 1.833-.449h.949v1.807h-1.621z"/>
  <path fill="#444" fill-rule="evenodd" d="M408.235 650.591l-.896-1.346c-.369.484-.831.876-1.384 1.175-.554.29-1.161.435-1.82.435h-.408c-.545 0-1.06-.101-1.543-.304-.483-.211-.905-.496-1.266-.857-.36-.361-.646-.783-.856-1.267-.203-.483-.304-.998-.304-1.543v-.132c0-.545.101-1.06.304-1.543.21-.484.496-.906.856-1.267.361-.361.783-.642 1.266-.844.483-.211.998-.317 1.543-.317h3.427v-2.084c0-.326-.061-.629-.184-.911-.09-.211-.202-.401-.338-.57-.051-.063-.106-.124-.163-.182-.095-.094-.198-.18-.308-.257-.136-.095-.284-.176-.444-.244-.281-.123-.584-.185-.909-.185h-.95c-.325 0-.632.062-.922.185-.282.123-.528.29-.739.501-.083.083-.158.172-.228.267-.107.147-.198.309-.273.485-.123.282-.184.585-.184.911v.488l-1.622-.264v-.132c0-.545.101-1.06.303-1.543.211-.484.497-.906.857-1.267.361-.361.783-.642 1.266-.844.483-.211.997-.317 1.542-.317h.95c.545 0 1.059.106 1.542.317.483.202.905.483 1.266.844.36.361.641.783.843 1.267.211.483.317.998.317 1.543v9.802h-.541zm-1.081-6.543h-3.427c-.326 0-.633.061-.923.184-.282.123-.528.295-.739.515-.211.211-.377.462-.501.752-.123.281-.184.585-.184.91v.567c0 .326.061.634.184.924.124.281.29.527.501.739.211.211.457.378.739.501.29.123.597.185.923.185h1.081c.325 0 .628-.062.909-.185.166-.07.319-.155.459-.254.028-.02.055-.04.082-.061.074-.058.144-.12.211-.186.211-.212.378-.458.501-.739.041-.099.076-.199.104-.301.053-.2.08-.408.08-.623v-2.928zM421.037 646.884c0 .545-.106 1.06-.317 1.543-.202.484-.483.906-.844 1.267-.36.361-.782.646-1.265.857-.484.203-.998.304-1.543.304h-.408c-.607 0-1.169-.123-1.688-.369-.518-.247-.962-.59-1.331-1.03V656h-1.622v-18.918h.541l.883 1.372c.369-.501.83-.897 1.384-1.187.563-.299 1.173-.449 1.833-.449h.408c.545 0 1.059.106 1.543.317.483.202.905.483 1.265.844.361.361.642.783.844 1.267.211.483.317.998.317 1.543v6.095zm-1.622-6.187c0-.326-.061-.629-.185-.911-.123-.29-.29-.54-.501-.752-.21-.211-.461-.378-.751-.501-.281-.123-.584-.185-.91-.185h-1.081c-.325 0-.633.062-.923.185-.066.029-.131.061-.194.095-.054.03-.107.061-.159.095-.139.09-.267.194-.385.311-.211.212-.378.462-.501.752-.123.282-.184.585-.184.911v6.279c0 .326.061.634.184.924.048.11.103.215.165.315.096.154.208.295.336.424.211.211.457.378.738.501.122.051.246.092.373.122.177.042.361.063.55.063h1.081c.326 0 .629-.062.91-.185.29-.123.541-.29.751-.501.211-.212.378-.458.501-.739.124-.29.185-.598.185-.924v-6.279z" clip-rule="evenodd"/>
  <path fill="#444" d="M431.676 650.591v-9.894c0-.326-.062-.629-.185-.911-.123-.29-.29-.54-.501-.752-.211-.211-.461-.378-.751-.501-.281-.123-.585-.185-.91-.185h-1.081c-.177 0-.348.019-.514.055-.14.03-.276.074-.409.13-.281.123-.527.29-.738.501-.211.212-.378.462-.501.752-.123.282-.185.585-.185.911v9.894h-1.621v-18.918h1.621v6.544c.37-.44.813-.783 1.332-1.03.518-.246 1.081-.369 1.687-.369h.409c.545 0 1.059.106 1.543.317.483.202.905.483 1.265.844.361.361.642.783.844 1.267.211.483.316.998.316 1.543v9.802h-1.621z"/>
  <path fill="#444" fill-rule="evenodd" d="M447.114 647.953c-.22.545-.523 1.024-.91 1.438-.387.413-.844.752-1.371 1.015-.519.255-1.077.405-1.674.449l1.727 3.892h-1.701l-1.727-3.892c-.642 0-1.248-.119-1.819-.356-.563-.247-1.055-.581-1.477-1.003-.422-.422-.756-.915-1.002-1.477-.237-.563-.356-1.166-.356-1.808v-10.158c0-.642.119-1.245.356-1.807.246-.563.58-1.056 1.002-1.478.422-.422.914-.752 1.477-.989.571-.247 1.177-.37 1.819-.37h1.345c.641 0 1.243.123 1.806.37.562.237 1.055.567 1.476.989.422.422.752.915.989 1.478.246.562.369 1.165.369 1.807v10.158c0 .616-.11 1.196-.329 1.742zm-1.371-11.9c0-.422-.079-.814-.238-1.174-.158-.37-.373-.691-.646-.963-.272-.273-.593-.488-.962-.647-.36-.158-.751-.237-1.173-.237h-1.187c-.422 0-.817.079-1.186.237-.361.159-.682.374-.963.647-.272.272-.488.593-.646.963-.158.36-.237.752-.237 1.174v10.158c0 .422.079.818.237 1.187.158.361.374.682.646.964.281.272.602.488.963.646.369.158.764.237 1.186.237h1.187c.422 0 .813-.079 1.173-.237.369-.158.69-.374.962-.646.109-.113.209-.232.3-.357.102-.141.192-.29.271-.447.027-.052.052-.105.075-.16.159-.369.238-.765.238-1.187v-10.158z" clip-rule="evenodd"/>
  <path fill="#444" d="M451.227 650.591v-18.918h1.701v17.295h7.238v1.623h-8.939z"/>
  <path fill="#444" fill-rule="evenodd" d="M470.198 646.185l-1.239 4.406h-1.767l5.537-18.918h.897l5.563 18.918h-1.753l-1.252-4.406h-5.986zm.462-1.623h5.075l-2.491-8.72-.053-.699-.053.699-2.478 8.72zM492.254 638.678c0 .642-.123 1.245-.369 1.808-.237.562-.567 1.055-.989 1.477-.421.422-.918.757-1.489 1.003-.563.237-1.165.356-1.806.356h-4.285v7.269h-1.701v-18.918h5.986c.641 0 1.243.123 1.806.369.571.238 1.068.568 1.489.99.422.422.752.919.989 1.491.246.562.369 1.165.369 1.807v2.348zm-1.7-2.348c0-.422-.079-.814-.238-1.174-.158-.37-.378-.691-.659-.963-.064-.066-.13-.129-.2-.188-.059-.051-.121-.1-.185-.146-.177-.128-.369-.237-.577-.326-.361-.158-.752-.237-1.174-.237h-4.205v8.403h4.205c.422 0 .813-.079 1.174-.237.369-.158.69-.374.962-.647.281-.272.501-.589.659-.949.159-.37.238-.766.238-1.188v-2.348z" clip-rule="evenodd"/>
  <path fill="#444" d="M495.511 650.591v-18.918h1.7v18.918h-1.7zM417.697 181.931c-4.315 5.682-11.14 9.351-18.822 9.351-7.273 0-13.779-3.289-18.113-8.462l-22.388 12.925-4.498-7.801 22.522-13.002c-.745-2.299-1.148-4.753-1.148-7.301 0-13.057 10.577-23.641 23.625-23.641s23.625 10.584 23.625 23.641c0 2.143-.285 4.219-.819 6.192l24.443 14.111-4.498 7.801-23.929-13.814zM552.587 259.804c-1.183 2.816-1.837 5.909-1.837 9.155 0 11.91 8.801 21.763 20.25 23.402v26.131h9v-26.566c10.332-2.525 18-11.85 18-22.967 0-13.056-10.577-23.641-23.625-23.641-6.556 0-12.488 2.672-16.768 6.987l-23.733-13.702-4.498 7.801 23.211 13.4zM243.738 486.775c-4.334 5.172-10.84 8.461-18.113 8.461-13.048 0-23.625-10.584-23.625-23.64 0-11.117 7.668-20.442 18-22.967v-28.818h9v28.383c11.449 1.639 20.25 11.492 20.25 23.402 0 2.548-.403 5.001-1.148 7.301l22.522 13.002-4.498 7.801-22.388-12.925zM229 292.361c11.449-1.639 20.25-11.492 20.25-23.402 0-3.246-.654-6.339-1.837-9.155l23.211-13.4-4.498-7.801-23.733 13.702c-4.28-4.315-10.212-6.987-16.768-6.987-13.048 0-23.625 10.585-23.625 23.641 0 11.117 7.668 20.442 18 22.967v26.566h9v-26.131zM574.375 495.236c13.048 0 23.625-10.584 23.625-23.64 0-11.117-7.668-20.442-18-22.967v-28.818h-9v28.383c-11.449 1.639-20.25 11.492-20.25 23.402 0 2.548.403 5.001 1.148 7.301l-22.522 13.002 4.498 7.801 22.388-12.925c4.334 5.173 10.84 8.461 18.113 8.461zM422.5 572.914c0 13.056-10.577 23.641-23.625 23.641s-23.625-10.585-23.625-23.641c0-3.246.654-6.34 1.837-9.155l-23.211-13.4 4.498-7.801 23.733 13.702c4.28-4.315 10.212-6.987 16.768-6.987 6.971 0 13.237 3.021 17.562 7.827l25.189-14.542 4.498 7.801-25.046 14.459c.92 2.525 1.422 5.252 1.422 8.096z"/>
</svg>
