<svg width="800" height="800" viewBox="0 0 800 800" fill="none" xmlns="http://www.w3.org/2000/svg">
<path d="M313.524 650.591H312.984L311.995 649.074C311.582 649.619 311.081 650.055 310.492 650.38C309.903 650.697 309.249 650.855 308.528 650.855H307.539C306.897 650.855 306.291 650.736 305.72 650.499C305.157 650.252 304.665 649.918 304.243 649.496C303.821 649.074 303.487 648.581 303.241 648.019C303.004 647.456 302.885 646.853 302.885 646.211V636.053C302.885 635.411 303.004 634.808 303.241 634.246C303.487 633.683 303.821 633.19 304.243 632.768C304.665 632.346 305.157 632.016 305.72 631.779C306.291 631.532 306.897 631.409 307.539 631.409H308.884C309.525 631.409 310.127 631.532 310.69 631.779C311.252 632.016 311.745 632.346 312.167 632.768C312.588 633.19 312.918 633.683 313.155 634.246C313.401 634.808 313.524 635.411 313.524 636.053V636.818L311.824 637.082V636.053C311.824 635.631 311.745 635.239 311.586 634.879C311.428 634.509 311.213 634.188 310.94 633.916C310.668 633.643 310.347 633.428 309.978 633.269C309.618 633.111 309.227 633.032 308.805 633.032H307.618C307.196 633.032 306.801 633.111 306.432 633.269C306.071 633.428 305.75 633.643 305.469 633.916C305.387 633.998 305.31 634.085 305.238 634.176C305.072 634.387 304.934 634.621 304.823 634.879C304.665 635.239 304.586 635.631 304.586 636.053V646.211C304.586 646.633 304.665 647.029 304.823 647.398C304.882 647.532 304.948 647.66 305.022 647.783C305.082 647.881 305.147 647.976 305.217 648.068C305.295 648.17 305.379 648.268 305.469 648.362C305.75 648.634 306.071 648.85 306.432 649.008C306.801 649.166 307.196 649.245 307.618 649.245H308.805C309.227 649.245 309.618 649.166 309.978 649.008C310.347 648.85 310.668 648.634 310.94 648.362C311.074 648.224 311.193 648.077 311.299 647.92C311.41 647.756 311.506 647.583 311.586 647.398C311.745 647.029 311.824 646.633 311.824 646.211V642.267H308.805V640.644H313.524V650.591Z" fill="#444444"/>
<path d="M317.189 633.837V631.673H319.075V633.837H317.189Z" fill="#444444"/>
<path d="M317.321 650.591V637.082H318.943V650.591H317.321Z" fill="#444444"/>
<path d="M327.657 650.591C327.165 650.591 326.699 650.499 326.26 650.314C325.829 650.129 325.451 649.874 325.126 649.549C324.81 649.223 324.555 648.845 324.361 648.414C324.177 647.983 324.084 647.522 324.084 647.029V638.625H321.659V637.082H324.084V633.837L325.706 633.573V637.082H329.134V638.625H325.706V647.108C325.706 647.381 325.754 647.636 325.851 647.873C325.923 648.03 326.012 648.174 326.117 648.305C326.165 648.366 326.217 648.425 326.273 648.48C326.343 648.551 326.419 648.616 326.499 648.675C326.619 648.763 326.75 648.839 326.893 648.902C327.012 648.951 327.136 648.987 327.264 649.012C327.391 649.036 327.522 649.048 327.657 649.048H329.134V650.591H327.657Z" fill="#444444"/>
<path d="M341.605 650.591V641.95H334.368V650.591H332.667V631.673H334.368V640.327H341.605V631.673H343.306V650.591H341.605Z" fill="#444444"/>
<path d="M355.316 650.591L354.42 649.219C354.051 649.72 353.589 650.121 353.036 650.42C352.482 650.71 351.875 650.855 351.216 650.855H350.808C350.263 650.855 349.749 650.754 349.265 650.551C348.782 650.34 348.36 650.055 348 649.694C347.639 649.333 347.354 648.911 347.143 648.427C346.94 647.944 346.839 647.429 346.839 646.884V637.082H348.461V646.976C348.461 647.302 348.522 647.61 348.646 647.9C348.769 648.181 348.936 648.427 349.146 648.639C349.357 648.85 349.604 649.017 349.885 649.14C350.175 649.263 350.482 649.325 350.808 649.325H351.889C352.081 649.325 352.265 649.303 352.442 649.26C352.564 649.23 352.683 649.19 352.798 649.14C353.088 649.017 353.339 648.85 353.55 648.639C353.639 648.55 353.719 648.455 353.793 648.354C353.893 648.214 353.98 648.063 354.051 647.9C354.174 647.61 354.235 647.302 354.235 646.976V637.082H355.857V650.591H355.316Z" fill="#444444"/>
<path fill-rule="evenodd" clip-rule="evenodd" d="M368.118 646.884C368.118 647.429 368.012 647.944 367.801 648.427C367.599 648.911 367.318 649.333 366.958 649.694C366.597 650.055 366.175 650.34 365.692 650.551C365.208 650.754 364.694 650.855 364.149 650.855H363.068C362.523 650.855 362.009 650.754 361.526 650.551C361.042 650.34 360.621 650.055 360.26 649.694C359.9 649.333 359.614 648.911 359.403 648.427C359.201 647.944 359.1 647.429 359.1 646.884V631.673H360.722V638.217C361.091 637.777 361.535 637.434 362.053 637.187C362.572 636.941 363.134 636.818 363.741 636.818H364.149C364.694 636.818 365.208 636.924 365.692 637.135C366.175 637.337 366.597 637.618 366.958 637.979C367.318 638.34 367.599 638.762 367.801 639.246C368.012 639.729 368.118 640.244 368.118 640.789V646.884ZM366.449 640.219C366.418 640.069 366.372 639.925 366.312 639.786C366.188 639.496 366.021 639.246 365.811 639.034C365.6 638.823 365.349 638.656 365.059 638.533C364.778 638.41 364.475 638.348 364.149 638.348H363.068C362.743 638.348 362.436 638.41 362.146 638.533C361.864 638.656 361.618 638.823 361.407 639.034C361.196 639.246 361.029 639.496 360.906 639.786C360.783 640.068 360.722 640.371 360.722 640.697V646.976C360.722 647.302 360.783 647.61 360.906 647.9C361.029 648.181 361.196 648.427 361.407 648.639C361.618 648.85 361.864 649.017 362.146 649.14C362.436 649.263 362.743 649.325 363.068 649.325H364.149C364.475 649.325 364.778 649.263 365.059 649.14C365.349 649.017 365.6 648.85 365.811 648.639C366.021 648.427 366.188 648.181 366.312 647.9C366.435 647.61 366.496 647.302 366.496 646.976V640.697C366.496 640.532 366.48 640.373 366.449 640.219Z" fill="#444444"/>
<path d="M388.486 650.591H387.946L386.957 649.074C386.544 649.619 386.043 650.055 385.454 650.38C384.865 650.697 384.21 650.855 383.49 650.855H382.501C381.859 650.855 381.253 650.736 380.682 650.499C380.119 650.252 379.627 649.918 379.205 649.496C378.783 649.074 378.449 648.581 378.203 648.019C377.966 647.456 377.847 646.853 377.847 646.211V636.053C377.847 635.411 377.966 634.808 378.203 634.246C378.449 633.683 378.783 633.19 379.205 632.768C379.627 632.346 380.119 632.016 380.682 631.779C381.253 631.532 381.859 631.409 382.501 631.409H383.846C384.487 631.409 385.089 631.532 385.652 631.779C386.214 632.016 386.707 632.346 387.128 632.768C387.55 633.19 387.88 633.683 388.117 634.246C388.363 634.808 388.486 635.411 388.486 636.053V636.818L386.786 637.082V636.053C386.786 635.631 386.707 635.239 386.548 634.879C386.39 634.509 386.175 634.188 385.902 633.916C385.63 633.643 385.309 633.428 384.94 633.269C384.58 633.111 384.188 633.032 383.767 633.032H382.58C382.158 633.032 381.763 633.111 381.394 633.269C381.033 633.428 380.712 633.643 380.431 633.916C380.263 634.084 380.116 634.271 379.991 634.477C379.914 634.604 379.846 634.738 379.785 634.879C379.627 635.239 379.548 635.631 379.548 636.053V646.211C379.548 646.633 379.627 647.029 379.785 647.398C379.811 647.458 379.839 647.517 379.869 647.575C379.917 647.67 379.971 647.763 380.028 647.853C380.145 648.035 380.279 648.204 380.431 648.362C380.712 648.634 381.033 648.85 381.394 649.008C381.763 649.166 382.158 649.245 382.58 649.245H383.767C384.188 649.245 384.58 649.166 384.94 649.008C385.309 648.85 385.63 648.634 385.902 648.362C386.175 648.08 386.39 647.759 386.548 647.398C386.707 647.029 386.786 646.633 386.786 646.211V642.267H383.767V640.644H388.486V650.591Z" fill="#444444"/>
<path d="M395.975 638.625C395.649 638.625 395.342 638.687 395.052 638.81C394.771 638.933 394.524 639.1 394.313 639.311C394.232 639.393 394.157 639.481 394.088 639.574C393.98 639.723 393.888 639.885 393.812 640.063C393.689 640.345 393.628 640.648 393.628 640.974V650.591H392.006V637.082H392.547L393.43 638.454C393.799 637.953 394.261 637.557 394.814 637.267C395.377 636.968 395.988 636.818 396.647 636.818H397.596V638.625H395.975Z" fill="#444444"/>
<path fill-rule="evenodd" clip-rule="evenodd" d="M408.235 650.591L407.339 649.245C406.97 649.729 406.508 650.121 405.955 650.42C405.401 650.71 404.794 650.855 404.135 650.855H403.727C403.182 650.855 402.667 650.754 402.184 650.551C401.701 650.34 401.279 650.055 400.918 649.694C400.558 649.333 400.272 648.911 400.062 648.427C399.859 647.944 399.758 647.429 399.758 646.884V646.752C399.758 646.207 399.859 645.692 400.062 645.209C400.272 644.725 400.558 644.303 400.918 643.942C401.279 643.581 401.701 643.3 402.184 643.098C402.667 642.887 403.182 642.781 403.727 642.781H407.154V640.697C407.154 640.371 407.093 640.068 406.97 639.786C406.88 639.575 406.768 639.385 406.632 639.216C406.581 639.153 406.526 639.092 406.469 639.034C406.374 638.94 406.271 638.854 406.161 638.777C406.025 638.682 405.877 638.601 405.717 638.533C405.436 638.41 405.133 638.348 404.808 638.348H403.858C403.533 638.348 403.226 638.41 402.936 638.533C402.654 638.656 402.408 638.823 402.197 639.034C402.114 639.117 402.039 639.206 401.969 639.301C401.862 639.448 401.771 639.61 401.696 639.786C401.573 640.068 401.512 640.371 401.512 640.697V641.185L399.89 640.921V640.789C399.89 640.244 399.991 639.729 400.193 639.246C400.404 638.762 400.69 638.34 401.05 637.979C401.411 637.618 401.833 637.337 402.316 637.135C402.799 636.924 403.313 636.818 403.858 636.818H404.808C405.353 636.818 405.867 636.924 406.35 637.135C406.833 637.337 407.255 637.618 407.616 637.979C407.976 638.34 408.257 638.762 408.459 639.246C408.67 639.729 408.776 640.244 408.776 640.789V650.591H408.235ZM407.154 644.048H403.727C403.401 644.048 403.094 644.109 402.804 644.232C402.522 644.355 402.276 644.527 402.065 644.747C401.854 644.958 401.688 645.209 401.564 645.499C401.441 645.78 401.38 646.084 401.38 646.409V646.976C401.38 647.302 401.441 647.61 401.564 647.9C401.688 648.181 401.854 648.427 402.065 648.639C402.276 648.85 402.522 649.017 402.804 649.14C403.094 649.263 403.401 649.325 403.727 649.325H404.808C405.133 649.325 405.436 649.263 405.717 649.14C405.883 649.07 406.036 648.985 406.176 648.886C406.204 648.866 406.231 648.846 406.258 648.825C406.332 648.767 406.402 648.705 406.469 648.639C406.68 648.427 406.847 648.181 406.97 647.9C407.011 647.801 407.046 647.701 407.074 647.599C407.127 647.399 407.154 647.191 407.154 646.976V644.048Z" fill="#444444"/>
<path fill-rule="evenodd" clip-rule="evenodd" d="M421.037 646.884C421.037 647.429 420.931 647.944 420.72 648.427C420.518 648.911 420.237 649.333 419.876 649.694C419.516 650.055 419.094 650.34 418.611 650.551C418.127 650.754 417.613 650.855 417.068 650.855H416.66C416.053 650.855 415.491 650.732 414.972 650.486C414.454 650.239 414.01 649.896 413.641 649.456V656H412.019V637.082H412.56L413.443 638.454C413.812 637.953 414.273 637.557 414.827 637.267C415.39 636.968 416 636.818 416.66 636.818H417.068C417.613 636.818 418.127 636.924 418.611 637.135C419.094 637.337 419.516 637.618 419.876 637.979C420.237 638.34 420.518 638.762 420.72 639.246C420.931 639.729 421.037 640.244 421.037 640.789V646.884ZM419.415 640.697C419.415 640.371 419.354 640.068 419.23 639.786C419.107 639.496 418.94 639.246 418.729 639.034C418.519 638.823 418.268 638.656 417.978 638.533C417.697 638.41 417.394 638.348 417.068 638.348H415.987C415.662 638.348 415.354 638.41 415.064 638.533C414.998 638.562 414.933 638.594 414.87 638.628C414.816 638.658 414.763 638.689 414.711 638.723C414.572 638.813 414.444 638.917 414.326 639.034C414.115 639.246 413.948 639.496 413.825 639.786C413.702 640.068 413.641 640.371 413.641 640.697V646.976C413.641 647.302 413.702 647.61 413.825 647.9C413.873 648.01 413.928 648.115 413.99 648.215C414.086 648.369 414.198 648.51 414.326 648.639C414.537 648.85 414.783 649.017 415.064 649.14C415.186 649.191 415.31 649.232 415.437 649.262C415.614 649.304 415.798 649.325 415.987 649.325H417.068C417.394 649.325 417.697 649.263 417.978 649.14C418.268 649.017 418.519 648.85 418.729 648.639C418.94 648.427 419.107 648.181 419.23 647.9C419.354 647.61 419.415 647.302 419.415 646.976V640.697Z" fill="#444444"/>
<path d="M431.676 650.591V640.697C431.676 640.371 431.614 640.068 431.491 639.786C431.368 639.496 431.201 639.246 430.99 639.034C430.779 638.823 430.529 638.656 430.239 638.533C429.958 638.41 429.654 638.348 429.329 638.348H428.248C428.071 638.348 427.9 638.367 427.734 638.403C427.594 638.433 427.458 638.477 427.325 638.533C427.044 638.656 426.798 638.823 426.587 639.034C426.376 639.246 426.209 639.496 426.086 639.786C425.963 640.068 425.901 640.371 425.901 640.697V650.591H424.28V631.673H425.901V638.217C426.271 637.777 426.714 637.434 427.233 637.187C427.751 636.941 428.314 636.818 428.92 636.818H429.329C429.874 636.818 430.388 636.924 430.872 637.135C431.355 637.337 431.777 637.618 432.137 637.979C432.498 638.34 432.779 638.762 432.981 639.246C433.192 639.729 433.297 640.244 433.297 640.789V650.591H431.676Z" fill="#444444"/>
<path fill-rule="evenodd" clip-rule="evenodd" d="M447.114 647.953C446.894 648.498 446.591 648.977 446.204 649.391C445.817 649.804 445.36 650.143 444.833 650.406C444.314 650.661 443.756 650.811 443.159 650.855L444.886 654.747H443.185L441.458 650.855C440.816 650.855 440.21 650.736 439.639 650.499C439.076 650.252 438.584 649.918 438.162 649.496C437.74 649.074 437.406 648.581 437.16 648.019C436.923 647.456 436.804 646.853 436.804 646.211V636.053C436.804 635.411 436.923 634.808 437.16 634.246C437.406 633.683 437.74 633.19 438.162 632.768C438.584 632.346 439.076 632.016 439.639 631.779C440.21 631.532 440.816 631.409 441.458 631.409H442.803C443.444 631.409 444.046 631.532 444.609 631.779C445.171 632.016 445.664 632.346 446.085 632.768C446.507 633.19 446.837 633.683 447.074 634.246C447.32 634.808 447.443 635.411 447.443 636.053V646.211C447.443 646.827 447.333 647.407 447.114 647.953ZM445.743 636.053C445.743 635.631 445.664 635.239 445.505 634.879C445.347 634.509 445.132 634.188 444.859 633.916C444.587 633.643 444.266 633.428 443.897 633.269C443.537 633.111 443.146 633.032 442.724 633.032H441.537C441.115 633.032 440.72 633.111 440.351 633.269C439.99 633.428 439.669 633.643 439.388 633.916C439.116 634.188 438.9 634.509 438.742 634.879C438.584 635.239 438.505 635.631 438.505 636.053V646.211C438.505 646.633 438.584 647.029 438.742 647.398C438.9 647.759 439.116 648.08 439.388 648.362C439.669 648.634 439.99 648.85 440.351 649.008C440.72 649.166 441.115 649.245 441.537 649.245H442.724C443.146 649.245 443.537 649.166 443.897 649.008C444.266 648.85 444.587 648.634 444.859 648.362C444.968 648.249 445.068 648.13 445.159 648.005C445.261 647.864 445.351 647.715 445.43 647.558C445.457 647.506 445.482 647.453 445.505 647.398C445.664 647.029 445.743 646.633 445.743 646.211V636.053Z" fill="#444444"/>
<path d="M451.227 650.591V631.673H452.928V648.968H460.166V650.591H451.227Z" fill="#444444"/>
<path fill-rule="evenodd" clip-rule="evenodd" d="M470.198 646.185L468.959 650.591H467.192L472.729 631.673H473.626L479.189 650.591H477.436L476.184 646.185H470.198ZM470.66 644.562H475.735L473.244 635.842L473.191 635.143L473.138 635.842L470.66 644.562Z" fill="#444444"/>
<path fill-rule="evenodd" clip-rule="evenodd" d="M492.254 638.678C492.254 639.32 492.131 639.923 491.885 640.486C491.648 641.048 491.318 641.541 490.896 641.963C490.475 642.385 489.978 642.72 489.407 642.966C488.844 643.203 488.242 643.322 487.601 643.322H483.316V650.591H481.615V631.673H487.601C488.242 631.673 488.844 631.796 489.407 632.042C489.978 632.28 490.475 632.61 490.896 633.032C491.318 633.454 491.648 633.951 491.885 634.523C492.131 635.085 492.254 635.688 492.254 636.33V638.678ZM490.554 636.33C490.554 635.908 490.475 635.516 490.316 635.156C490.158 634.786 489.938 634.465 489.657 634.193C489.593 634.127 489.527 634.064 489.457 634.005C489.398 633.954 489.336 633.905 489.272 633.859C489.095 633.731 488.903 633.622 488.695 633.533C488.334 633.375 487.943 633.296 487.521 633.296H483.316V641.699H487.521C487.943 641.699 488.334 641.62 488.695 641.462C489.064 641.304 489.385 641.088 489.657 640.815C489.938 640.543 490.158 640.226 490.316 639.866C490.475 639.496 490.554 639.1 490.554 638.678V636.33Z" fill="#444444"/>
<path d="M495.511 650.591V631.673H497.211V650.591H495.511Z" fill="#444444"/>
<path d="M417.697 181.931C413.382 187.613 406.557 191.282 398.875 191.282C391.602 191.282 385.096 187.993 380.762 182.82L358.374 195.745L353.876 187.944L376.398 174.942C375.653 172.643 375.25 170.189 375.25 167.641C375.25 154.584 385.827 144 398.875 144C411.923 144 422.5 154.584 422.5 167.641C422.5 169.784 422.215 171.86 421.681 173.833L446.124 187.944L441.626 195.745L417.697 181.931Z" fill="#444444"/>
<path d="M552.587 259.804C551.404 262.62 550.75 265.713 550.75 268.959C550.75 280.869 559.551 290.722 571 292.361V318.492H580V291.926C590.332 289.401 598 280.076 598 268.959C598 255.903 587.423 245.318 574.375 245.318C567.819 245.318 561.887 247.99 557.607 252.305L533.874 238.603L529.376 246.404L552.587 259.804Z" fill="#444444"/>
<path d="M243.738 486.775C239.404 491.947 232.898 495.236 225.625 495.236C212.577 495.236 202 484.652 202 471.596C202 460.479 209.668 451.154 220 448.629V419.811H229V448.194C240.449 449.833 249.25 459.686 249.25 471.596C249.25 474.144 248.847 476.597 248.102 478.897L270.624 491.899L266.126 499.7L243.738 486.775Z" fill="#444444"/>
<path d="M229 292.361C240.449 290.722 249.25 280.869 249.25 268.959C249.25 265.713 248.596 262.62 247.413 259.804L270.624 246.404L266.126 238.603L242.393 252.305C238.113 247.99 232.181 245.318 225.625 245.318C212.577 245.318 202 255.903 202 268.959C202 280.076 209.668 289.401 220 291.926V318.492H229V292.361Z" fill="#444444"/>
<path d="M574.375 495.236C587.423 495.236 598 484.652 598 471.596C598 460.479 590.332 451.154 580 448.629V419.811H571V448.194C559.551 449.833 550.75 459.686 550.75 471.596C550.75 474.144 551.153 476.597 551.898 478.897L529.376 491.899L533.874 499.7L556.262 486.775C560.596 491.948 567.102 495.236 574.375 495.236Z" fill="#444444"/>
<path d="M422.5 572.914C422.5 585.97 411.923 596.555 398.875 596.555C385.827 596.555 375.25 585.97 375.25 572.914C375.25 569.668 375.904 566.574 377.087 563.759L353.876 550.359L358.374 542.558L382.107 556.26C386.387 551.945 392.319 549.273 398.875 549.273C405.846 549.273 412.112 552.294 416.437 557.1L441.626 542.558L446.124 550.359L421.078 564.818C421.998 567.343 422.5 570.07 422.5 572.914Z" fill="#444444"/>
</svg>
